<?xml version="1.0" encoding="UTF-8"?>
<svg data-bbox="6 3 798 267" width="810" height="275" xmlns:xlink="http://www.w3.org/1999/xlink" xmlns="http://www.w3.org/2000/svg" data-type="ugc">
    <!--<g id="Background">
		<rect id="Bckgrd" x="0" y="0" width="810" height="275" style="fill:Wheat;stroke:none" />
	</g>-->
	<g>
        <defs>
            <marker id="394c868e-2f39-435d-b176-720191200dfc" refX="0" refY="0" orient="auto" overflow="visible">
                <path d="M2.308 0l-3.46 2v-4l3.46 2z" fill-rule="evenodd" stroke="#000000" stroke-width=".4pt"/>
            </marker>
        </defs>
        <g stroke="#808080">
            <path id="touche-carree" fill="#ffffff" d="M54 12v36a6 6 0 0 1-6 6H12a6 6 0 0 1-6-6V12a6 6 0 0 1 6-6h36a6 6 0 0 1 6 6z"/>
            <use xlink:href="#touche-carree" transform="translate(54)"/>
            <use xlink:href="#touche-carree" transform="translate(108)"/>
            <use xlink:href="#touche-carree" transform="translate(162)"/>
            <use xlink:href="#touche-carree" transform="translate(216)"/>
            <use xlink:href="#touche-carree" transform="translate(270)"/>
            <use xlink:href="#touche-carree" transform="translate(324)"/>
            <use xlink:href="#touche-carree" transform="translate(378)"/>
            <use xlink:href="#touche-carree" transform="translate(432)"/>
            <use xlink:href="#touche-carree" transform="translate(486)"/>
            <use xlink:href="#touche-carree" transform="translate(540)"/>
            <use xlink:href="#touche-carree" transform="translate(594)"/>
            <use xlink:href="#touche-carree" transform="translate(648)"/>
            <use xlink:href="#touche-carree" transform="translate(80 54)"/>
            <use xlink:href="#touche-carree" transform="translate(134 54)"/>
            <use xlink:href="#touche-carree" transform="translate(188 54)"/>
            <use xlink:href="#touche-carree" transform="translate(242 54)"/>
            <use xlink:href="#touche-carree" transform="translate(296 54)"/>
            <use xlink:href="#touche-carree" transform="translate(350 54)"/>
            <use xlink:href="#touche-carree" transform="translate(404 54)"/>
            <use xlink:href="#touche-carree" transform="translate(458 54)"/>
            <use xlink:href="#touche-carree" transform="translate(512 54)"/>
            <use xlink:href="#touche-carree" transform="translate(566 54)"/>
            <use xlink:href="#touche-carree" transform="translate(620 54)"/>
            <use xlink:href="#touche-carree" transform="translate(674 54)"/>
            <use xlink:href="#touche-carree" transform="translate(96 108)"/>
            <use xlink:href="#touche-carree" transform="translate(150 108)"/>
            <use xlink:href="#touche-carree" transform="translate(204 108)"/>
            <use xlink:href="#touche-carree" transform="translate(258 108)"/>
            <use xlink:href="#touche-carree" transform="translate(312 108)"/>
            <use xlink:href="#touche-carree" transform="translate(366 108)"/>
            <use xlink:href="#touche-carree" transform="translate(420 108)"/>
            <use xlink:href="#touche-carree" transform="translate(474 108)"/>
            <use xlink:href="#touche-carree" transform="translate(528 108)"/>
            <use xlink:href="#touche-carree" transform="translate(582 108)"/>
            <use xlink:href="#touche-carree" transform="translate(636 108)"/>
            <use xlink:href="#touche-carree" transform="translate(690 108)"/>
            <use xlink:href="#touche-carree" transform="translate(62 162)"/>
            <use xlink:href="#touche-carree" transform="translate(116 162)"/>
            <use xlink:href="#touche-carree" transform="translate(170 162)"/>
            <use xlink:href="#touche-carree" transform="translate(224 162)"/>
            <use xlink:href="#touche-carree" transform="translate(278 162)"/>
            <use xlink:href="#touche-carree" transform="translate(332 162)"/>
            <use xlink:href="#touche-carree" transform="translate(386 162)"/>
            <use xlink:href="#touche-carree" transform="translate(440 162)"/>
            <use xlink:href="#touche-carree" transform="translate(494 162)"/>
            <use xlink:href="#touche-carree" transform="translate(548 162)"/>
            <use xlink:href="#touche-carree" transform="translate(602 162)"/>
            <path fill="#ffffff" d="M556 228v36a6 6 0 0 1-6 6H198a6 6 0 0 1-6-6v-36a6 6 0 0 1 6-6h352a6 6 0 0 1 6 6z"/>
        </g>
        <g stroke="#808080">
			<!-- Retour Arrière -->
            <path fill="#c0c0c0" d="M804 12v36a6 6 0 0 1-6 6h-84a6 6 0 0 1-6-6V12a6 6 0 0 1 6-6h84a6 6 0 0 1 6 6z"/>

			<!-- Tabulation -->
            <path fill="#c0c0c0" d="M80 66v36a6 6 0 0 1-6 6H12a6 6 0 0 1-6-6V66a6 6 0 0 1 6-6h62a6 6 0 0 1 6 6z"/>
			<!-- Entrée -->
            <path fill="#c0c0c0" d="M740.16 60.01c-3.44 0-5.94 2.56-5.94 5.24l-.06 36.88c0 3.31 2.69 6.37 6 6.37h3.99c3.08 0 5.7 3.04 5.7 5.59s.24 29.16.24 42.44c0 1.99 2.02 5.97 6 5.97h41.82c3.98 0 5.97-3.98 5.97-5.97V66c0-1.99-1.99-6-5.97-6z"/>
			
			<!-- Verrouillage Majuscule -->
            <path fill="#ffff99" d="M96 120v36a6 6 0 0 1-6 6H12a6 6 0 0 1-6-6v-36a6 6 0 0 1 6-6h78a6 6 0 0 1 6 6z"/>
			
			<!-- Majuscule Gauche -->
            <path fill="#ffffbb" d="M62 174v36a6 6 0 0 1-6 6H12a6 6 0 0 1-6-6v-36a6 6 0 0 1 6-6h44a6 6 0 0 1 6 6z"/>
			<!-- Majuscule Droite -->
            <path fill="#ffffbb" d="M804 174v36a6 6 0 0 1-6 6H668a6 6 0 0 1-6-6v-36a6 6 0 0 1 6-6h130a6 6 0 0 1 6 6z"/>
			
			<!-- Contrôle Gauche -->
            <path id="touche-modif" fill="#c0c0c0" d="M62 228v36a6 6 0 0 1-6 6h-44a6 6 0 0 1-6-6v-36a6 6 0 0 1 6-6h44a6 6 0 0 1 6 6z"/>
            <!-- Windows Gauche -->
            <use xlink:href="#touche-modif" transform="translate(62)"/>
            <!-- Alt Gauche -->
            <use xlink:href="#touche-modif" transform="translate(124)"/>
			
			<!-- Alt Gr -->
            <path fill="#b0e0e6" d="M618 228v36a6 6 0 0 1-6 6h-44a6 6 0 0 1-6-6v-36a6 6 0 0 1 6-6h44a6 6 0 0 1 6 6z"/>
            <!-- Windows Droite -->
            <use xlink:href="#touche-modif" transform="translate(618)"/>
            <!-- Menu -->
            <use xlink:href="#touche-modif" transform="translate(680)"/>
			<!-- Contrôle Droite -->
            <use xlink:href="#touche-modif" transform="translate(742)"/>
        </g>
        <use xlink:href="#5ce5bfce-5d82-452f-9b36-9617dc446f9a" transform="translate(556)" width="1" height="1"/>
        <path fill="#d2cfcf" stroke="#000000" stroke-linecap="round" stroke-linejoin="round" d="M720 236v20h-16v-20h16z"/>
        <path d="M705.5 237h13m-13 5h13" fill="none" stroke="#000000" stroke-width="4" stroke-linecap="square"/>
        <path d="M707 245h10m-10 4h10m-10 4h10" fill="none" stroke="#000000" stroke-width="2" stroke-linecap="square"/>
        <path d="M708 241h10" fill="none" stroke="#d2cfcf" stroke-width="2" stroke-linecap="square"/>
        <path d="M720 253l2-2 4 4 2-2-4-4 2-2-11-5 5 11z" fill="#d2cfcf" stroke="#000000" stroke-width="1.4" stroke-linejoin="round"/>
        <path d="M742 30h-20" fill="none" stroke="#000000" stroke-width="2" marker-end="url(#394c868e-2f39-435d-b176-720191200dfc)"/>
        <path d="M38 76H18" fill="none" stroke="#000000" stroke-width="2" marker-end="url(#394c868e-2f39-435d-b176-720191200dfc)"/>
        <path d="M12 70v12" fill="none" stroke="#000000" stroke-width="2"/>
        <path d="M12 92h20" fill="none" stroke="#000000" stroke-width="2" marker-end="url(#394c868e-2f39-435d-b176-720191200dfc)"/>
        <path d="M38 86v12" fill="none" stroke="#000000" stroke-width="2"/>
        <path id="3f8ecba6-9f71-4db8-b334-4c9da616a77c" d="M22 184l-8 8h4v6h8v-6h4z" fill="none" stroke="#000000" stroke-width="2"/>
        <use xlink:href="#3f8ecba6-9f71-4db8-b334-4c9da616a77c" transform="translate(660)" width="1" height="1"/>
        <path d="M788 128v8h-18" fill="none" stroke="#000000" stroke-width="2" marker-end="url(#394c868e-2f39-435d-b176-720191200dfc)"/>
        <path fill="none" stroke="#000000" stroke-width="1.6" d="M32 135v12a1 1 0 0 1-1 1H15a1 1 0 0 1-1-1v-12a1 1 0 0 1 1-1h16a1 1 0 0 1 1 1z"/>
        <path d="M16 134v-3a7 6 0 1 1 14 0v3m-12 0v-3a5 4 0 1 1 10 0v3" fill="none" stroke="#000000" stroke-width="1.4"/>
        <path fill="none" stroke="#000000" stroke-width="1.2" d="M24 139c0 1.105-.448 2-1 2s-1-.895-1-2 .448-2 1-2 1 .895 1 2z"/>
        
		
		
		
		<g style="text-align:center" font-size="18" font-weight="700" font-family="Nimbus Sans L,sans-serif" text-anchor="middle" fill="#000000">
			
			
            <!-- Rangée Numérique -->
			
			
            <text x="18" y="46" font-size="15">
                @
            </text>			
			<text x="18" y="27">
                #
            </text>
			<text x="42" y="46" fill="#dd0000">
                →
            </text>
			
			
            <text x="72" y="47">
                &amp;
            </text>
			<text x="72" y="27" fill="#a0a0a0">
                1
            </text>
			<text x="96" y="52" fill="#dd0000" font-size="25">
                ˙
            </text>
			<text x="96" y="48" font-size="16" font-family="sans" fill="#808080">
                ◌
            </text>
			<text x="105.25" y="22" fill="#dd0000" font-size="25">
                ̣
            </text>
			<text x="96" y="22.5" font-size="16" fill="#808080">
                ◌
            </text>
			
			
            <text x="126" y="47">
                é
            </text>			
            <text x="126" y="27" fill="#a0a0a0">
                2
            </text>
			<text x="151" y="52" fill="#dd0000" font-size="25">
                ̋
            </text>
			<text x="150" y="48" font-size="16" font-family="sans" fill="#808080">
                ◌
            </text>
			<text x="149.5" y="31" fill="#dd0000" font-size="25">
                ̏
            </text>
			<text x="150" y="27" font-size="16" fill="#808080">
                ◌
            </text>
			
			
            <text x="180" y="47">
                &quot;
            </text>			
            <text x="180" y="27" fill="#a0a0a0">
                3
            </text>
			<text x="206.5" y="48" font-size="19" fill="#dd0000">
                ̛
            </text>
			<text x="202" y="47" font-size="16" fill="#808080">
                ◌
            </text>
			<text x="205.5" y="36.5" fill="#dd0000" font-size="25">
                ̉
            </text>
			<text x="202" y="28" font-size="16" fill="#808080">
                ◌
            </text>

			
			
            <text x="234" y="47">
                &apos;
            </text>			
            <text x="234" y="27" fill="#a0a0a0">
                4
            </text>
			<text x="258" y="52" fill="#dd0000" font-size="25">
                ˇ
            </text>
			<text x="258" y="48" font-size="16" fill="#808080">
                ◌
            </text>
			<text x="258" y="23.5" fill="#dd0000" font-size="25">
                ˛
            </text>
			<text x="258" y="23" font-size="16" fill="#808080">
                ◌
            </text>
			
			
            <text x="288" y="46">
                (
            </text>			
            <text x="288" y="27" fill="#a0a0a0">
                5
            </text>
			<text x="312" y="52" fill="#dd0000" font-size="25">
                ˘
            </text>
			<text x="312" y="48" font-size="16" fill="#808080">
                ◌
            </text>
			<text x="312" y="32" fill="#dd0000" font-size="25">
                ̑
            </text>
			<text x="312" y="27" font-size="16" fill="#808080">
                ◌
            </text>
			
			
            <text x="342" y="47">
                -
            </text>			
            <text x="342" y="27" fill="#a0a0a0">
                6
            </text>
			<text x="366" y="47" fill="#0000bb">
                ‑
            </text>

			
            <text x="396" y="47">
                è
            </text>			
            <text x="396" y="27" fill="#a0a0a0">
                7
            </text>
			<text x="420" y="45" fill="#dd0000" font-size="9">
                ╱
            </text>
			<text x="420" y="47" font-size="16" fill="#808080">
                ◌
            </text>
			<text x="420" y="23.5" fill="#dd0000" font-size="12">
                —
            </text>
			<text x="420" y="25" font-size="16" fill="#808080">
                ◌
            </text>
			
			
            <text x="450" y="44">
                _
            </text>			
            <text x="450" y="27" fill="#a0a0a0">
                8
            </text>
			<text x="474" y="50" fill="#dd0000" font-size="17">
                ¯
            </text>
			<text x="474" y="47" font-size="16" fill="#808080">
                ◌
            </text>
			<text x="474" y="25" fill="#dd0000">
                ɛ
            </text>
			
			
            <text x="504" y="47">
                ç
            </text>			
            <text x="504" y="27" fill="#a0a0a0">
                9
            </text>
			<text x="528" y="46" fill="#dd0000" font-size="23">
                ¸
            </text>
			<text x="528" y="45.5" font-size="16" fill="#808080">
                ◌
            </text>
			<text x="528" y="23" fill="#dd0000" font-size="21">
                ̦
            </text>
			<text x="528" y="23" font-size="16" fill="#808080">
                ◌
            </text>
			
			
            <text x="558" y="47">
                à
            </text>			
            <text x="558" y="27" fill="#a0a0a0">
                0
            </text>
			<text x="581" y="45" fill="#0000bb" font-size="15">
                @
            </text>
			<text x="582" y="27" fill="#dd0000">
                ə
            </text>
			
			
            <text x="612" y="46">
                )
            </text>			
            <text x="612" y="27">
                %
            </text>
            <text x="636" y="47" fill="#0000bb">
				°
            </text>
			<text x="636" y="32" fill="#dd0000" font-size="25">
                ˚
            </text>
			<text x="636" y="28" font-size="16" fill="#808080">
                ◌
            </text>
			
			
            <text x="666" y="47">
                =
            </text>			
            <text x="666" y="27">
                +
            </text>
			<text x="690" y="47" fill="#dd0000">
                ±
            </text>




            <!-- Rangée Haut -->

 
			<text x="98" y="81" font-size="21">
                A
            </text>
            <text x="122" y="101" fill="#0000bb">
                æ
            </text>
			
			
            <text x="152" y="81" font-size="21">
                Z
            </text>
			
			
            <text x="206" y="81" font-size="21">
                E
            </text>
            <text x="230" y="101" fill="#0000bb">
                €
            </text>
			
			
            <text x="260" y="81" font-size="21">
                R
            </text>
			
			
            <text x="314" y="81" font-size="21">
                T
            </text>
			<text x="337" y="101" fill="#0000bb">
                –
            </text>
			<text x="337" y="78" fill="#00aa00">
                —
            </text>
			
			
            <text x="368" y="81" font-size="21">
                Y
            </text>
			
			
            <text x="422" y="81" font-size="21">
                U
            </text>
            <text x="446" y="101" fill="#0000bb">
                ù
            </text>
			
			
            <text x="476" y="81" font-size="21">
                I
            </text>
			
			
            <text x="530" y="81" font-size="21">
                O
            </text>
            <text x="554" y="101" fill="#0000bb">
                œ
            </text>
			
			
            <text x="584" y="81" font-size="21">
                P
            </text>
			

            <text x="638" y="99" font-size="17" fill="#dd0000">
                ^
            </text>
            <text x="638" y="103" font-size="16" fill="#808080">
                ◌
            </text>
            <text x="638" y="84" font-size="25" font-family="sans" fill="#dd0000">
                ¨
            </text>
            <text x="638" y="81" font-size="16" fill="#808080">
                ◌
            </text>

		
            <text x="692" y="101">
                $
            </text>
            <text x="692" y="81">
                £
            </text>
			<text x="716" y="102" fill="#dd0000" font-size="21">
                ¤
            </text>
			
			
			
			
            <!-- Rangée Milieu -->


            <text x="114" y="135" font-size="21">
                Q
            </text>
			
			
            <text x="168" y="135" font-size="21">
                S
            </text>
			
			
            <text x="222" y="135" font-size="21">
                D
            </text>
			<text x="246" y="155" fill="#0000bb">
                {
            </text>
			
			
            <text x="276" y="135" font-size="21">
                F
            </text>
			<text x="300" y="155" fill="#0000bb">
                }
            </text>
			
			
            <text x="330" y="135" font-size="21">
                G
            </text>
			<text x="354" y="157" fill="#0000bb" font-size="21">
                \
            </text>
			
			
            <text x="384" y="135" font-size="21">
                H
            </text>
			<text x="408" y="154" fill="#0000bb" font-size="17">
                |
            </text>
			
			
            <text x="438" y="135" font-size="21">
                J
            </text>
			<text x="462" y="155" fill="#0000bb">
                [
            </text>
			
			
            <text x="492" y="135" font-size="21">
                K
            </text>
			<text x="516" y="155" fill="#0000bb">
                ]
            </text>
			
			
            <text x="546" y="135" font-size="21">
                L
            </text>
			
			
            <text x="600" y="135" font-size="21">
                M
            </text>
			
			
            <text x="654" y="161" font-size="25" fill="#dd0000">
                ´
            </text>
            <text x="654" y="157" font-size="16" fill="#808080">
                ◌
            </text>
            <text x="654" y="139" font-size="25" fill="#dd0000">
                `
            </text>
            <text x="654" y="135" font-size="16" fill="#808080">
                ◌
            </text>
            <text x="678" y="151" font-size="21" font-family="sans" fill="#dd0000">
                ~
            </text>
            <text x="678" y="157" font-size="16" fill="#808080">
                ◌
            </text>
			

            <text x="708" y="155" font-size="22">
                ∗
            </text>
			<text x="708" y="132" font-size="15" fill="#dd0000">
                µ
            </text>
			<text x="732" y="155" font-size="15" fill="#dd0000">
                Я
            </text>
			
			
			
			
			
            <!-- Rangée Bas -->
			
			
            <text x="80" y="209">
                &lt;
            </text>
            <text x="80" y="189">
                &gt;
            </text>
			<text x="104" y="209" fill="#0000bb">
                ≤
            </text>
			<text x="104" y="189" fill="#00aa00">
                ≥
            </text>
			
			
            <text x="136" y="189" font-size="21">
                W
            </text>
			<text x="160" y="209" fill="#0000bb">
                «
            </text>
			<text x="160" y="189" fill="#00aa00">
                “
            </text>
			
			
            <text x="188" y="189" font-size="21">
                X
            </text>
			<text x="212" y="209" fill="#0000bb">
                »
            </text>
			<text x="212" y="189" fill="#00aa00">
                ”
            </text>
			
			
            <text x="242" y="189" font-size="21">
                C
            </text>
			
			
            <text x="296" y="189" font-size="21">
                V
            </text>
			
			
            <text x="350" y="189" font-size="21">
                B
            </text>
            <text x="374" y="209" fill="#0000bb">
                ß
            </text>
			
			
            <text x="404" y="189" font-size="21">
                N
            </text>
			
			
            <text x="458" y="209">
                ,
            </text>
            <text x="458" y="189">
                ?
            </text>
            <text x="482" y="208" fill="#0000bb">
                ¿
            </text>
			

            <text x="512" y="209">
                .
            </text>
            <text x="512" y="189">
                ;
            </text>
            <text x="536" y="209" fill="#0000bb">
                ·
            </text>
			
			
            <text x="566" y="209">
                :
            </text>			
            <text x="566" y="189">
                /
            </text>					
			
			
            <text x="620" y="209">
                !
            </text>
			<text x="620" y="187" font-size="15" fill="#dd0000">
                §
            </text>
            <text x="644" y="206" fill="#0000bb">
                ¡
            </text>
        </g>





<!-- Touches Fonctions -->		

        <g style="text-align:right" font-size="16" font-weight="700" font-family="Nimbus Sans L,sans-serif">
		
		
            <text x="20" y="252">
                Ctrl
            </text>
			
			
            <text x="147" y="252">
                Alt
            </text>
			
			
            <text x="568" y="252">
                Alt Gr
            </text>
			
			
            <text x="762" y="252">
                Ctrl
            </text>
			
			
            <text x="751" y="26" font-size="14" fill="#696969">
                Retour
            </text>
            <text x="752" y="44" font-size="14" fill="#696969">
                arrière
            </text>
			
			
            <text x="44" y="90" font-size="14" fill="#696969">
                Tab
            </text>
			
			
            <text x="750" y="90" font-size="14" fill="#696969">
                Entrée
            </text>
			
			
            <text x="40" y="134" font-size="14" fill="#696969">
                Verr.
            </text>
            <text x="41" y="152" font-size="14" fill="#696969">
                Maj.
            </text>
			
			
            <text x="33" y="199" font-size="14" fill="#696969">
                Maj.
            </text>
			
			
            <text x="700" y="198" font-size="14" fill="#696969">
                Majuscule
            </text>
	
	
        </g>
    </g>
</svg>