<?xml version="1.0" encoding="UTF-8" standalone="no"?>
<!DOCTYPE svg PUBLIC "-//W3C//DTD SVG 1.1//EN" "http://www.w3.org/Graphics/SVG/1.1/DTD/svg11.dtd">
<svg width="100%" height="100%" viewBox="0 0 24802 4787" version="1.1" xmlns="http://www.w3.org/2000/svg" xmlns:xlink="http://www.w3.org/1999/xlink" xml:space="preserve" xmlns:serif="http://www.serif.com/" style="fill-rule:evenodd;clip-rule:evenodd;stroke-linejoin:round;stroke-miterlimit:2;">
    <g id="Plan-de-travail1" serif:id="Plan de travail1" transform="matrix(12.4009,0,0,12.4009,0,0)">
        <rect x="0" y="0" width="2000" height="386" style="fill:none;"/>
        <g transform="matrix(1,0,0,1,0,0.0864199)">
            <path d="M329.641,111.111L329.641,312.832L183.475,312.832L183.475,111.111L110.085,111.111L110.085,385.811L403.032,385.811L403.032,111.111L329.641,111.111Z" style="fill:rgb(234,86,61);fill-rule:nonzero;"/>
        </g>
        <g transform="matrix(1,0,0,1,0,0.0864199)">
            <path d="M0,0.001L0,274.906L73.39,274.906L73.39,72.981L219.555,72.981L219.555,274.906L292.945,274.906L292.945,0.001L0,0.001Z" style="fill:rgb(234,86,61);fill-rule:nonzero;"/>
        </g>
        <g transform="matrix(1,0,0,1,0,0.0864199)">
            <path d="M572.969,276.401L572.969,177.54C572.969,160.675 566.688,147.12 551.476,147.12C542.551,147.12 531.969,152.081 519.737,162.33L519.737,276.401L476.422,276.401L476.422,111.081L512.791,111.081L519.737,125.96C539.244,111.411 550.817,107.774 568.67,107.774C597.106,107.774 616.614,126.289 616.614,165.967L616.614,276.401L572.969,276.401Z" style="fill:rgb(234,86,61);fill-rule:nonzero;"/>
        </g>
        <g transform="matrix(1,0,0,1,0,0.0864199)">
            <path d="M710.516,111.081L710.516,212.258C710.516,229.12 716.799,242.676 732.008,242.676C740.936,242.676 751.516,237.717 763.75,227.467L763.75,111.081L807.065,111.081L807.065,276.401L770.694,276.401L763.75,260.531C744.242,275.08 732.67,278.386 714.815,278.386C686.379,278.386 666.871,260.201 666.871,220.523L666.871,111.081L710.516,111.081Z" style="fill:rgb(234,86,61);fill-rule:nonzero;"/>
        </g>
        <g transform="matrix(1,0,0,1,0,0.0864199)">
            <path d="M860.624,276.401L860.624,111.081L896.994,111.081L902.615,125.959C922.124,111.411 933.697,107.774 951.552,107.774C969.075,107.774 981.308,116.7 988.253,130.588C1013.71,111.741 1025.94,107.774 1043.14,107.774C1069.59,107.774 1087.44,127.281 1087.44,166.958L1087.44,276.401L1044.13,276.401L1044.13,178.53C1044.13,161.669 1038.84,148.112 1025.94,148.112C1017.02,148.112 1006.77,153.071 994.865,163.321L994.865,276.401L951.881,276.401L951.881,178.53C951.881,161.669 946.922,148.112 934.027,148.112C925.43,148.112 914.85,153.071 903.937,162.33L903.937,276.401L860.624,276.401Z" style="fill:rgb(234,86,61);fill-rule:nonzero;"/>
        </g>
        <g transform="matrix(1,0,0,1,0,0.0864199)">
            <path d="M1223.34,173.902C1223.34,155.056 1215.74,140.176 1195.9,140.176C1175.73,140.176 1167.79,157.7 1167.46,176.217L1223.34,176.217L1223.34,173.902ZM1203.17,278.385C1152.25,278.385 1125.47,252.264 1125.47,194.402C1125.47,137.2 1151.59,107.774 1199.2,107.774C1237.23,107.774 1264.67,130.919 1264.67,181.175C1264.67,188.451 1264.34,198.369 1263.35,206.636L1167.79,206.636C1167.79,233.748 1184.32,244.66 1206.81,244.66C1220.36,244.66 1234.58,242.014 1254.09,236.724L1261.36,266.151C1237.56,275.409 1222.02,278.385 1203.17,278.385" style="fill:rgb(234,86,61);fill-rule:nonzero;"/>
        </g>
        <g transform="matrix(1,0,0,1,0,0.0864199)">
            <path d="M1347.99,276.401L1304.68,276.401L1304.68,111.08L1339.06,111.08L1343.03,127.281C1359.23,114.056 1369.48,107.773 1385.02,107.773C1393.95,107.773 1399.24,109.757 1399.57,109.757L1395.6,149.104C1392.63,148.112 1386.34,147.12 1379.4,147.12C1367.83,147.12 1356.59,157.04 1347.99,166.628L1347.99,276.401Z" style="fill:rgb(234,86,61);fill-rule:nonzero;"/>
        </g>
        <g transform="matrix(1,0,0,1,0,0.0864199)">
            <path d="M1496.11,203.991C1469.99,203.991 1464.37,211.596 1464.37,223.829C1464.37,235.733 1471.64,244.66 1482.22,244.66C1491.15,244.66 1498.42,239.369 1510.33,226.805L1510.33,203.991L1496.11,203.991ZM1514.96,259.869C1500.08,273.426 1490.16,278.716 1472.96,278.716C1445.85,278.716 1420.39,258.216 1420.39,225.482C1420.39,193.079 1444.53,172.249 1497.43,172.249L1510.99,172.249C1510.99,154.394 1503.05,140.838 1483.55,140.838C1470.98,140.838 1449.49,143.483 1434.61,147.451L1427.34,118.354C1448.83,111.411 1472.3,107.773 1493.13,107.773C1537.44,107.773 1553.31,129.927 1553.31,163.983L1553.31,276.401L1521.57,276.401L1514.96,259.869Z" style="fill:rgb(234,86,61);fill-rule:nonzero;"/>
        </g>
        <g transform="matrix(1,0,0,1,0,0.0864199)">
            <path d="M1600.26,276.401L1600.26,111.08L1636.63,111.08L1642.25,125.958C1661.76,111.411 1673.33,107.773 1691.19,107.773C1708.71,107.773 1720.94,116.699 1727.89,130.588C1753.35,111.74 1765.58,107.773 1782.78,107.773C1809.23,107.773 1827.08,127.28 1827.08,166.958L1827.08,276.401L1783.77,276.401L1783.77,178.531C1783.77,161.668 1778.48,148.111 1765.58,148.111C1756.65,148.111 1746.4,153.071 1734.5,163.321L1734.5,276.401L1691.52,276.401L1691.52,178.531C1691.52,161.668 1686.56,148.111 1673.66,148.111C1665.07,148.111 1654.49,153.071 1643.57,162.329L1643.57,276.401L1600.26,276.401Z" style="fill:rgb(234,86,61);fill-rule:nonzero;"/>
        </g>
        <g transform="matrix(1,0,0,1,0,0.0864199)">
            <path d="M1942.8,203.991C1916.68,203.991 1911.06,211.595 1911.06,223.829C1911.06,235.733 1918.33,244.66 1928.91,244.66C1937.84,244.66 1945.11,239.369 1957.02,226.804L1957.02,203.991L1942.8,203.991ZM1961.65,259.869C1946.77,273.426 1936.85,278.715 1919.65,278.715C1892.54,278.715 1867.08,258.216 1867.08,225.482C1867.08,193.078 1891.22,172.249 1944.12,172.249L1957.68,172.249C1957.68,154.393 1949.74,140.837 1930.24,140.837C1917.67,140.837 1896.18,143.483 1881.3,147.449L1874.03,118.353C1895.52,111.411 1918.99,107.773 1939.82,107.773C1984.13,107.773 2000,129.926 2000,163.983L2000,276.401L1968.26,276.401L1961.65,259.869Z" style="fill:rgb(234,86,61);fill-rule:nonzero;"/>
        </g>
    </g>
</svg>
