<svg xmlns="http://www.w3.org/2000/svg" viewBox="0 0 700 560" font-family="Inter, Arial, sans-serif"><rect width="700" height="560" rx="12" fill="#0f172a"/><text x="24" y="34" fill="#f1f5f9" font-size="17" font-weight="700">Format ISO (Europe)&#160;&#8212; 105 touches</text><rect x="24" y="48" width="40" height="40" rx="6" fill="#243247" stroke="#536680" stroke-width="1.5"/><rect x="68" y="48" width="40" height="40" rx="6" fill="#243247" stroke="#536680" stroke-width="1.5"/><rect x="112" y="48" width="40" height="40" rx="6" fill="#243247" stroke="#536680" stroke-width="1.5"/><rect x="156" y="48" width="40" height="40" rx="6" fill="#243247" stroke="#536680" stroke-width="1.5"/><rect x="200" y="48" width="40" height="40" rx="6" fill="#243247" stroke="#536680" stroke-width="1.5"/><rect x="244" y="48" width="40" height="40" rx="6" fill="#243247" stroke="#536680" stroke-width="1.5"/><rect x="288" y="48" width="40" height="40" rx="6" fill="#243247" stroke="#536680" stroke-width="1.5"/><rect x="332" y="48" width="40" height="40" rx="6" fill="#243247" stroke="#536680" stroke-width="1.5"/><rect x="376" y="48" width="40" height="40" rx="6" fill="#243247" stroke="#536680" stroke-width="1.5"/><rect x="420" y="48" width="40" height="40" rx="6" fill="#243247" stroke="#536680" stroke-width="1.5"/><rect x="464" y="48" width="40" height="40" rx="6" fill="#243247" stroke="#536680" stroke-width="1.5"/><rect x="508" y="48" width="40" height="40" rx="6" fill="#243247" stroke="#536680" stroke-width="1.5"/><rect x="552" y="48" width="40" height="40" rx="6" fill="#243247" stroke="#536680" stroke-width="1.5"/><rect x="596" y="48" width="84" height="40" rx="6" fill="#243247" stroke="#536680" stroke-width="1.5"/><text x="638" y="73" text-anchor="middle" fill="#f1f5f9" font-size="13" font-weight="600">&#8676;</text><rect x="24" y="96" width="62" height="40" rx="6" fill="#243247" stroke="#536680" stroke-width="1.5"/><text x="55" y="121" text-anchor="middle" fill="#f1f5f9" font-size="12" font-weight="600">Tab</text><rect x="90" y="96" width="40" height="40" rx="6" fill="#243247" stroke="#536680" stroke-width="1.5"/><rect x="134" y="96" width="40" height="40" rx="6" fill="#243247" stroke="#536680" stroke-width="1.5"/><rect x="178" y="96" width="40" height="40" rx="6" fill="#243247" stroke="#536680" stroke-width="1.5"/><rect x="222" y="96" width="40" height="40" rx="6" fill="#243247" stroke="#536680" stroke-width="1.5"/><rect x="266" y="96" width="40" height="40" rx="6" fill="#243247" stroke="#536680" stroke-width="1.5"/><rect x="310" y="96" width="40" height="40" rx="6" fill="#243247" stroke="#536680" stroke-width="1.5"/><rect x="354" y="96" width="40" height="40" rx="6" fill="#243247" stroke="#536680" stroke-width="1.5"/><rect x="398" y="96" width="40" height="40" rx="6" fill="#243247" stroke="#536680" stroke-width="1.5"/><rect x="442" y="96" width="40" height="40" rx="6" fill="#243247" stroke="#536680" stroke-width="1.5"/><rect x="486" y="96" width="40" height="40" rx="6" fill="#243247" stroke="#536680" stroke-width="1.5"/><rect x="530" y="96" width="40" height="40" rx="6" fill="#243247" stroke="#536680" stroke-width="1.5"/><rect x="574" y="96" width="40" height="40" rx="6" fill="#243247" stroke="#536680" stroke-width="1.5"/><path d="M 618 96 h 62 v 88 h -51 v -48 h -11 z" fill="#00c8ff26" stroke="#00c8ff" stroke-width="1.5" stroke-linejoin="round"/><text x="649" y="120" text-anchor="middle" fill="#00c8ff" font-size="12" font-weight="600">Entr&#233;e</text><rect x="24" y="144" width="73" height="40" rx="6" fill="#243247" stroke="#536680" stroke-width="1.5"/><text x="60.5" y="169" text-anchor="middle" fill="#f1f5f9" font-size="10" font-weight="600">Verr Maj</text><rect x="101" y="144" width="40" height="40" rx="6" fill="#243247" stroke="#536680" stroke-width="1.5"/><rect x="145" y="144" width="40" height="40" rx="6" fill="#243247" stroke="#536680" stroke-width="1.5"/><rect x="189" y="144" width="40" height="40" rx="6" fill="#243247" stroke="#536680" stroke-width="1.5"/><rect x="233" y="144" width="40" height="40" rx="6" fill="#243247" stroke="#536680" stroke-width="1.5"/><rect x="277" y="144" width="40" height="40" rx="6" fill="#243247" stroke="#536680" stroke-width="1.5"/><rect x="321" y="144" width="40" height="40" rx="6" fill="#243247" stroke="#536680" stroke-width="1.5"/><rect x="365" y="144" width="40" height="40" rx="6" fill="#243247" stroke="#536680" stroke-width="1.5"/><rect x="409" y="144" width="40" height="40" rx="6" fill="#243247" stroke="#536680" stroke-width="1.5"/><rect x="453" y="144" width="40" height="40" rx="6" fill="#243247" stroke="#536680" stroke-width="1.5"/><rect x="497" y="144" width="40" height="40" rx="6" fill="#243247" stroke="#536680" stroke-width="1.5"/><rect x="541" y="144" width="40" height="40" rx="6" fill="#243247" stroke="#536680" stroke-width="1.5"/><rect x="585" y="144" width="40" height="40" rx="6" fill="#243247" stroke="#536680" stroke-width="1.5"/><rect x="24" y="192" width="51" height="40" rx="6" fill="#243247" stroke="#536680" stroke-width="1.5"/><text x="49.5" y="217" text-anchor="middle" fill="#f1f5f9" font-size="12" font-weight="600">Maj</text><rect x="79" y="192" width="40" height="40" rx="6" fill="#fbbf2426" stroke="#fbbf24" stroke-width="1.5"/><text x="99" y="217" text-anchor="middle" fill="#fbbf24" font-size="13" font-weight="600">&lt; &gt;</text><rect x="123" y="192" width="40" height="40" rx="6" fill="#243247" stroke="#536680" stroke-width="1.5"/><rect x="167" y="192" width="40" height="40" rx="6" fill="#243247" stroke="#536680" stroke-width="1.5"/><rect x="211" y="192" width="40" height="40" rx="6" fill="#243247" stroke="#536680" stroke-width="1.5"/><rect x="255" y="192" width="40" height="40" rx="6" fill="#243247" stroke="#536680" stroke-width="1.5"/><rect x="299" y="192" width="40" height="40" rx="6" fill="#243247" stroke="#536680" stroke-width="1.5"/><rect x="343" y="192" width="40" height="40" rx="6" fill="#243247" stroke="#536680" stroke-width="1.5"/><rect x="387" y="192" width="40" height="40" rx="6" fill="#243247" stroke="#536680" stroke-width="1.5"/><rect x="431" y="192" width="40" height="40" rx="6" fill="#243247" stroke="#536680" stroke-width="1.5"/><rect x="475" y="192" width="40" height="40" rx="6" fill="#243247" stroke="#536680" stroke-width="1.5"/><rect x="519" y="192" width="40" height="40" rx="6" fill="#243247" stroke="#536680" stroke-width="1.5"/><rect x="563" y="192" width="117" height="40" rx="6" fill="#243247" stroke="#536680" stroke-width="1.5"/><text x="621.5" y="217" text-anchor="middle" fill="#f1f5f9" font-size="12" font-weight="600">Maj</text><text x="24" y="272" fill="#f1f5f9" font-size="17" font-weight="700">Format ANSI (&#201;tats-Unis)&#160;&#8212; 104 touches</text><rect x="24" y="286" width="40" height="40" rx="6" fill="#243247" stroke="#536680" stroke-width="1.5"/><rect x="68" y="286" width="40" height="40" rx="6" fill="#243247" stroke="#536680" stroke-width="1.5"/><rect x="112" y="286" width="40" height="40" rx="6" fill="#243247" stroke="#536680" stroke-width="1.5"/><rect x="156" y="286" width="40" height="40" rx="6" fill="#243247" stroke="#536680" stroke-width="1.5"/><rect x="200" y="286" width="40" height="40" rx="6" fill="#243247" stroke="#536680" stroke-width="1.5"/><rect x="244" y="286" width="40" height="40" rx="6" fill="#243247" stroke="#536680" stroke-width="1.5"/><rect x="288" y="286" width="40" height="40" rx="6" fill="#243247" stroke="#536680" stroke-width="1.5"/><rect x="332" y="286" width="40" height="40" rx="6" fill="#243247" stroke="#536680" stroke-width="1.5"/><rect x="376" y="286" width="40" height="40" rx="6" fill="#243247" stroke="#536680" stroke-width="1.5"/><rect x="420" y="286" width="40" height="40" rx="6" fill="#243247" stroke="#536680" stroke-width="1.5"/><rect x="464" y="286" width="40" height="40" rx="6" fill="#243247" stroke="#536680" stroke-width="1.5"/><rect x="508" y="286" width="40" height="40" rx="6" fill="#243247" stroke="#536680" stroke-width="1.5"/><rect x="552" y="286" width="40" height="40" rx="6" fill="#243247" stroke="#536680" stroke-width="1.5"/><rect x="596" y="286" width="84" height="40" rx="6" fill="#243247" stroke="#536680" stroke-width="1.5"/><text x="638" y="311" text-anchor="middle" fill="#f1f5f9" font-size="13" font-weight="600">&#8676;</text><rect x="24" y="334" width="62" height="40" rx="6" fill="#243247" stroke="#536680" stroke-width="1.5"/><text x="55" y="359" text-anchor="middle" fill="#f1f5f9" font-size="12" font-weight="600">Tab</text><rect x="90" y="334" width="40" height="40" rx="6" fill="#243247" stroke="#536680" stroke-width="1.5"/><rect x="134" y="334" width="40" height="40" rx="6" fill="#243247" stroke="#536680" stroke-width="1.5"/><rect x="178" y="334" width="40" height="40" rx="6" fill="#243247" stroke="#536680" stroke-width="1.5"/><rect x="222" y="334" width="40" height="40" rx="6" fill="#243247" stroke="#536680" stroke-width="1.5"/><rect x="266" y="334" width="40" height="40" rx="6" fill="#243247" stroke="#536680" stroke-width="1.5"/><rect x="310" y="334" width="40" height="40" rx="6" fill="#243247" stroke="#536680" stroke-width="1.5"/><rect x="354" y="334" width="40" height="40" rx="6" fill="#243247" stroke="#536680" stroke-width="1.5"/><rect x="398" y="334" width="40" height="40" rx="6" fill="#243247" stroke="#536680" stroke-width="1.5"/><rect x="442" y="334" width="40" height="40" rx="6" fill="#243247" stroke="#536680" stroke-width="1.5"/><rect x="486" y="334" width="40" height="40" rx="6" fill="#243247" stroke="#536680" stroke-width="1.5"/><rect x="530" y="334" width="40" height="40" rx="6" fill="#243247" stroke="#536680" stroke-width="1.5"/><rect x="574" y="334" width="40" height="40" rx="6" fill="#243247" stroke="#536680" stroke-width="1.5"/><rect x="618" y="334" width="62" height="40" rx="6" fill="#243247" stroke="#536680" stroke-width="1.5"/><text x="649" y="359" text-anchor="middle" fill="#f1f5f9" font-size="13" font-weight="600">\</text><rect x="24" y="382" width="73" height="40" rx="6" fill="#243247" stroke="#536680" stroke-width="1.5"/><text x="60.5" y="407" text-anchor="middle" fill="#f1f5f9" font-size="10" font-weight="600">Verr Maj</text><rect x="101" y="382" width="40" height="40" rx="6" fill="#243247" stroke="#536680" stroke-width="1.5"/><rect x="145" y="382" width="40" height="40" rx="6" fill="#243247" stroke="#536680" stroke-width="1.5"/><rect x="189" y="382" width="40" height="40" rx="6" fill="#243247" stroke="#536680" stroke-width="1.5"/><rect x="233" y="382" width="40" height="40" rx="6" fill="#243247" stroke="#536680" stroke-width="1.5"/><rect x="277" y="382" width="40" height="40" rx="6" fill="#243247" stroke="#536680" stroke-width="1.5"/><rect x="321" y="382" width="40" height="40" rx="6" fill="#243247" stroke="#536680" stroke-width="1.5"/><rect x="365" y="382" width="40" height="40" rx="6" fill="#243247" stroke="#536680" stroke-width="1.5"/><rect x="409" y="382" width="40" height="40" rx="6" fill="#243247" stroke="#536680" stroke-width="1.5"/><rect x="453" y="382" width="40" height="40" rx="6" fill="#243247" stroke="#536680" stroke-width="1.5"/><rect x="497" y="382" width="40" height="40" rx="6" fill="#243247" stroke="#536680" stroke-width="1.5"/><rect x="541" y="382" width="40" height="40" rx="6" fill="#243247" stroke="#536680" stroke-width="1.5"/><rect x="585" y="382" width="95" height="40" rx="6" fill="#00c8ff26" stroke="#00c8ff" stroke-width="1.5"/><text x="632.5" y="407" text-anchor="middle" fill="#00c8ff" font-size="12" font-weight="600">Entr&#233;e</text><rect x="24" y="430" width="95" height="40" rx="6" fill="#243247" stroke="#536680" stroke-width="1.5"/><text x="71.5" y="455" text-anchor="middle" fill="#f1f5f9" font-size="12" font-weight="600">Maj</text><rect x="123" y="430" width="40" height="40" rx="6" fill="#243247" stroke="#536680" stroke-width="1.5"/><rect x="167" y="430" width="40" height="40" rx="6" fill="#243247" stroke="#536680" stroke-width="1.5"/><rect x="211" y="430" width="40" height="40" rx="6" fill="#243247" stroke="#536680" stroke-width="1.5"/><rect x="255" y="430" width="40" height="40" rx="6" fill="#243247" stroke="#536680" stroke-width="1.5"/><rect x="299" y="430" width="40" height="40" rx="6" fill="#243247" stroke="#536680" stroke-width="1.5"/><rect x="343" y="430" width="40" height="40" rx="6" fill="#243247" stroke="#536680" stroke-width="1.5"/><rect x="387" y="430" width="40" height="40" rx="6" fill="#243247" stroke="#536680" stroke-width="1.5"/><rect x="431" y="430" width="40" height="40" rx="6" fill="#243247" stroke="#536680" stroke-width="1.5"/><rect x="475" y="430" width="40" height="40" rx="6" fill="#243247" stroke="#536680" stroke-width="1.5"/><rect x="519" y="430" width="40" height="40" rx="6" fill="#243247" stroke="#536680" stroke-width="1.5"/><rect x="563" y="430" width="117" height="40" rx="6" fill="#243247" stroke="#536680" stroke-width="1.5"/><text x="621.5" y="455" text-anchor="middle" fill="#f1f5f9" font-size="12" font-weight="600">Maj</text><rect x="24" y="502" width="14" height="14" rx="3" fill="#fbbf2426" stroke="#fbbf24"/><text x="44" y="514" fill="#94a3b8" font-size="13">La 105&#7497; touche (&lt; &gt; sur AZERTY), absente du format ANSI</text><rect x="24" y="528" width="14" height="14" rx="3" fill="#00c8ff26" stroke="#00c8ff"/><text x="44" y="540" fill="#94a3b8" font-size="13">Touche Entr&#233;e&#160;: en L invers&#233; sur deux rang&#233;es (ISO) ou horizontale (ANSI)</text></svg>