<svg xmlns="http://www.w3.org/2000/svg" viewBox="0 0 560 420" font-family="Inter, Arial, sans-serif"><rect width="560" height="420" rx="12" fill="#0f172a"/><text x="24" y="36" fill="#f1f5f9" font-size="17" font-weight="700">QWERTY (&#201;tats-Unis)</text><rect x="24" y="52" width="40" height="40" rx="6" fill="#00c8ff26" stroke="#00c8ff" stroke-width="1.5"/><text x="44" y="77" text-anchor="middle" fill="#00c8ff" font-size="15" font-weight="600">Q</text><rect x="68" y="52" width="40" height="40" rx="6" fill="#00c8ff26" stroke="#00c8ff" stroke-width="1.5"/><text x="88" y="77" text-anchor="middle" fill="#00c8ff" font-size="15" font-weight="600">W</text><rect x="112" y="52" width="40" height="40" rx="6" fill="#243247" stroke="#536680" stroke-width="1.5"/><text x="132" y="77" text-anchor="middle" fill="#f1f5f9" font-size="15" font-weight="600">E</text><rect x="156" y="52" width="40" height="40" rx="6" fill="#243247" stroke="#536680" stroke-width="1.5"/><text x="176" y="77" text-anchor="middle" fill="#f1f5f9" font-size="15" font-weight="600">R</text><rect x="200" y="52" width="40" height="40" rx="6" fill="#243247" stroke="#536680" stroke-width="1.5"/><text x="220" y="77" text-anchor="middle" fill="#f1f5f9" font-size="15" font-weight="600">T</text><rect x="244" y="52" width="40" height="40" rx="6" fill="#243247" stroke="#536680" stroke-width="1.5"/><text x="264" y="77" text-anchor="middle" fill="#f1f5f9" font-size="15" font-weight="600">Y</text><rect x="288" y="52" width="40" height="40" rx="6" fill="#243247" stroke="#536680" stroke-width="1.5"/><text x="308" y="77" text-anchor="middle" fill="#f1f5f9" font-size="15" font-weight="600">U</text><rect x="332" y="52" width="40" height="40" rx="6" fill="#243247" stroke="#536680" stroke-width="1.5"/><text x="352" y="77" text-anchor="middle" fill="#f1f5f9" font-size="15" font-weight="600">I</text><rect x="376" y="52" width="40" height="40" rx="6" fill="#243247" stroke="#536680" stroke-width="1.5"/><text x="396" y="77" text-anchor="middle" fill="#f1f5f9" font-size="15" font-weight="600">O</text><rect x="420" y="52" width="40" height="40" rx="6" fill="#243247" stroke="#536680" stroke-width="1.5"/><text x="440" y="77" text-anchor="middle" fill="#f1f5f9" font-size="15" font-weight="600">P</text><rect x="46" y="100" width="40" height="40" rx="6" fill="#00c8ff26" stroke="#00c8ff" stroke-width="1.5"/><text x="66" y="125" text-anchor="middle" fill="#00c8ff" font-size="15" font-weight="600">A</text><rect x="90" y="100" width="40" height="40" rx="6" fill="#243247" stroke="#536680" stroke-width="1.5"/><text x="110" y="125" text-anchor="middle" fill="#f1f5f9" font-size="15" font-weight="600">S</text><rect x="134" y="100" width="40" height="40" rx="6" fill="#243247" stroke="#536680" stroke-width="1.5"/><text x="154" y="125" text-anchor="middle" fill="#f1f5f9" font-size="15" font-weight="600">D</text><rect x="178" y="100" width="40" height="40" rx="6" fill="#243247" stroke="#536680" stroke-width="1.5"/><text x="198" y="125" text-anchor="middle" fill="#f1f5f9" font-size="15" font-weight="600">F</text><rect x="222" y="100" width="40" height="40" rx="6" fill="#243247" stroke="#536680" stroke-width="1.5"/><text x="242" y="125" text-anchor="middle" fill="#f1f5f9" font-size="15" font-weight="600">G</text><rect x="266" y="100" width="40" height="40" rx="6" fill="#243247" stroke="#536680" stroke-width="1.5"/><text x="286" y="125" text-anchor="middle" fill="#f1f5f9" font-size="15" font-weight="600">H</text><rect x="310" y="100" width="40" height="40" rx="6" fill="#243247" stroke="#536680" stroke-width="1.5"/><text x="330" y="125" text-anchor="middle" fill="#f1f5f9" font-size="15" font-weight="600">J</text><rect x="354" y="100" width="40" height="40" rx="6" fill="#243247" stroke="#536680" stroke-width="1.5"/><text x="374" y="125" text-anchor="middle" fill="#f1f5f9" font-size="15" font-weight="600">K</text><rect x="398" y="100" width="40" height="40" rx="6" fill="#243247" stroke="#536680" stroke-width="1.5"/><text x="418" y="125" text-anchor="middle" fill="#f1f5f9" font-size="15" font-weight="600">L</text><rect x="68" y="148" width="40" height="40" rx="6" fill="#00c8ff26" stroke="#00c8ff" stroke-width="1.5"/><text x="88" y="173" text-anchor="middle" fill="#00c8ff" font-size="15" font-weight="600">Z</text><rect x="112" y="148" width="40" height="40" rx="6" fill="#243247" stroke="#536680" stroke-width="1.5"/><text x="132" y="173" text-anchor="middle" fill="#f1f5f9" font-size="15" font-weight="600">X</text><rect x="156" y="148" width="40" height="40" rx="6" fill="#243247" stroke="#536680" stroke-width="1.5"/><text x="176" y="173" text-anchor="middle" fill="#f1f5f9" font-size="15" font-weight="600">C</text><rect x="200" y="148" width="40" height="40" rx="6" fill="#243247" stroke="#536680" stroke-width="1.5"/><text x="220" y="173" text-anchor="middle" fill="#f1f5f9" font-size="15" font-weight="600">V</text><rect x="244" y="148" width="40" height="40" rx="6" fill="#243247" stroke="#536680" stroke-width="1.5"/><text x="264" y="173" text-anchor="middle" fill="#f1f5f9" font-size="15" font-weight="600">B</text><rect x="288" y="148" width="40" height="40" rx="6" fill="#243247" stroke="#536680" stroke-width="1.5"/><text x="308" y="173" text-anchor="middle" fill="#f1f5f9" font-size="15" font-weight="600">N</text><rect x="332" y="148" width="40" height="40" rx="6" fill="#fbbf2426" stroke="#fbbf24" stroke-width="1.5"/><text x="352" y="173" text-anchor="middle" fill="#fbbf24" font-size="15" font-weight="600">M</text><text x="24" y="238" fill="#f1f5f9" font-size="17" font-weight="700">AZERTY (France)</text><rect x="24" y="254" width="40" height="40" rx="6" fill="#00c8ff26" stroke="#00c8ff" stroke-width="1.5"/><text x="44" y="279" text-anchor="middle" fill="#00c8ff" font-size="15" font-weight="600">A</text><rect x="68" y="254" width="40" height="40" rx="6" fill="#00c8ff26" stroke="#00c8ff" stroke-width="1.5"/><text x="88" y="279" text-anchor="middle" fill="#00c8ff" font-size="15" font-weight="600">Z</text><rect x="112" y="254" width="40" height="40" rx="6" fill="#243247" stroke="#536680" stroke-width="1.5"/><text x="132" y="279" text-anchor="middle" fill="#f1f5f9" font-size="15" font-weight="600">E</text><rect x="156" y="254" width="40" height="40" rx="6" fill="#243247" stroke="#536680" stroke-width="1.5"/><text x="176" y="279" text-anchor="middle" fill="#f1f5f9" font-size="15" font-weight="600">R</text><rect x="200" y="254" width="40" height="40" rx="6" fill="#243247" stroke="#536680" stroke-width="1.5"/><text x="220" y="279" text-anchor="middle" fill="#f1f5f9" font-size="15" font-weight="600">T</text><rect x="244" y="254" width="40" height="40" rx="6" fill="#243247" stroke="#536680" stroke-width="1.5"/><text x="264" y="279" text-anchor="middle" fill="#f1f5f9" font-size="15" font-weight="600">Y</text><rect x="288" y="254" width="40" height="40" rx="6" fill="#243247" stroke="#536680" stroke-width="1.5"/><text x="308" y="279" text-anchor="middle" fill="#f1f5f9" font-size="15" font-weight="600">U</text><rect x="332" y="254" width="40" height="40" rx="6" fill="#243247" stroke="#536680" stroke-width="1.5"/><text x="352" y="279" text-anchor="middle" fill="#f1f5f9" font-size="15" font-weight="600">I</text><rect x="376" y="254" width="40" height="40" rx="6" fill="#243247" stroke="#536680" stroke-width="1.5"/><text x="396" y="279" text-anchor="middle" fill="#f1f5f9" font-size="15" font-weight="600">O</text><rect x="420" y="254" width="40" height="40" rx="6" fill="#243247" stroke="#536680" stroke-width="1.5"/><text x="440" y="279" text-anchor="middle" fill="#f1f5f9" font-size="15" font-weight="600">P</text><rect x="46" y="302" width="40" height="40" rx="6" fill="#00c8ff26" stroke="#00c8ff" stroke-width="1.5"/><text x="66" y="327" text-anchor="middle" fill="#00c8ff" font-size="15" font-weight="600">Q</text><rect x="90" y="302" width="40" height="40" rx="6" fill="#243247" stroke="#536680" stroke-width="1.5"/><text x="110" y="327" text-anchor="middle" fill="#f1f5f9" font-size="15" font-weight="600">S</text><rect x="134" y="302" width="40" height="40" rx="6" fill="#243247" stroke="#536680" stroke-width="1.5"/><text x="154" y="327" text-anchor="middle" fill="#f1f5f9" font-size="15" font-weight="600">D</text><rect x="178" y="302" width="40" height="40" rx="6" fill="#243247" stroke="#536680" stroke-width="1.5"/><text x="198" y="327" text-anchor="middle" fill="#f1f5f9" font-size="15" font-weight="600">F</text><rect x="222" y="302" width="40" height="40" rx="6" fill="#243247" stroke="#536680" stroke-width="1.5"/><text x="242" y="327" text-anchor="middle" fill="#f1f5f9" font-size="15" font-weight="600">G</text><rect x="266" y="302" width="40" height="40" rx="6" fill="#243247" stroke="#536680" stroke-width="1.5"/><text x="286" y="327" text-anchor="middle" fill="#f1f5f9" font-size="15" font-weight="600">H</text><rect x="310" y="302" width="40" height="40" rx="6" fill="#243247" stroke="#536680" stroke-width="1.5"/><text x="330" y="327" text-anchor="middle" fill="#f1f5f9" font-size="15" font-weight="600">J</text><rect x="354" y="302" width="40" height="40" rx="6" fill="#243247" stroke="#536680" stroke-width="1.5"/><text x="374" y="327" text-anchor="middle" fill="#f1f5f9" font-size="15" font-weight="600">K</text><rect x="398" y="302" width="40" height="40" rx="6" fill="#243247" stroke="#536680" stroke-width="1.5"/><text x="418" y="327" text-anchor="middle" fill="#f1f5f9" font-size="15" font-weight="600">L</text><rect x="442" y="302" width="40" height="40" rx="6" fill="#fbbf2426" stroke="#fbbf24" stroke-width="1.5"/><text x="462" y="327" text-anchor="middle" fill="#fbbf24" font-size="15" font-weight="600">M</text><rect x="68" y="350" width="40" height="40" rx="6" fill="#00c8ff26" stroke="#00c8ff" stroke-width="1.5"/><text x="88" y="375" text-anchor="middle" fill="#00c8ff" font-size="15" font-weight="600">W</text><rect x="112" y="350" width="40" height="40" rx="6" fill="#243247" stroke="#536680" stroke-width="1.5"/><text x="132" y="375" text-anchor="middle" fill="#f1f5f9" font-size="15" font-weight="600">X</text><rect x="156" y="350" width="40" height="40" rx="6" fill="#243247" stroke="#536680" stroke-width="1.5"/><text x="176" y="375" text-anchor="middle" fill="#f1f5f9" font-size="15" font-weight="600">C</text><rect x="200" y="350" width="40" height="40" rx="6" fill="#243247" stroke="#536680" stroke-width="1.5"/><text x="220" y="375" text-anchor="middle" fill="#f1f5f9" font-size="15" font-weight="600">V</text><rect x="244" y="350" width="40" height="40" rx="6" fill="#243247" stroke="#536680" stroke-width="1.5"/><text x="264" y="375" text-anchor="middle" fill="#f1f5f9" font-size="15" font-weight="600">B</text><rect x="288" y="350" width="40" height="40" rx="6" fill="#243247" stroke="#536680" stroke-width="1.5"/><text x="308" y="375" text-anchor="middle" fill="#f1f5f9" font-size="15" font-weight="600">N</text><rect x="24" y="390" width="14" height="14" rx="3" fill="#00c8ff26" stroke="#00c8ff"/><text x="44" y="402" fill="#94a3b8" font-size="13">A&#8596;Q et Z&#8596;W permut&#233;s</text><rect x="250" y="390" width="14" height="14" rx="3" fill="#fbbf2426" stroke="#fbbf24"/><text x="270" y="402" fill="#94a3b8" font-size="13">M d&#233;plac&#233; en fin de rang&#233;e du milieu</text></svg>